<mxfile host="65bd71144e">
    <diagram id="93nH0iukzEA3CWt5-T2e" name="Page-1">
        <mxGraphModel dx="588" dy="788" grid="1" gridSize="10" guides="1" tooltips="1" connect="1" arrows="1" fold="1" page="1" pageScale="1" pageWidth="850" pageHeight="1100" math="0" shadow="0">
            <root>
                <mxCell id="0"/>
                <mxCell id="1" parent="0"/>
                <mxCell id="2" value="" style="swimlane;startSize=0;" vertex="1" parent="1">
                    <mxGeometry x="80" y="80" width="360" height="360" as="geometry"/>
                </mxCell>
                <mxCell id="5" value="Login" style="swimlane;whiteSpace=wrap;html=1;" vertex="1" parent="2">
                    <mxGeometry x="85" y="85" width="200" height="235" as="geometry"/>
                </mxCell>
                <mxCell id="21" value="Usernmae" style="rounded=1;whiteSpace=wrap;html=1;align=left;" vertex="1" parent="5">
                    <mxGeometry x="20" y="50" width="160" height="30" as="geometry"/>
                </mxCell>
                <mxCell id="26" value="Password" style="rounded=1;whiteSpace=wrap;html=1;align=left;" vertex="1" parent="5">
                    <mxGeometry x="20" y="90" width="160" height="30" as="geometry"/>
                </mxCell>
                <mxCell id="27" value="Login" style="rounded=1;whiteSpace=wrap;html=1;align=center;" vertex="1" parent="5">
                    <mxGeometry x="20" y="150" width="160" height="30" as="geometry"/>
                </mxCell>
                <mxCell id="28" value="Lupa password" style="text;html=1;strokeColor=none;fillColor=none;align=center;verticalAlign=middle;whiteSpace=wrap;rounded=0;" vertex="1" parent="5">
                    <mxGeometry x="70" y="120" width="110" height="30" as="geometry"/>
                </mxCell>
                <mxCell id="40" value="Register" style="text;html=1;strokeColor=none;fillColor=none;align=center;verticalAlign=middle;whiteSpace=wrap;rounded=0;" vertex="1" parent="5">
                    <mxGeometry x="45" y="195" width="110" height="30" as="geometry"/>
                </mxCell>
                <mxCell id="29" value="" style="swimlane;startSize=0;" vertex="1" parent="1">
                    <mxGeometry x="520" y="80" width="360" height="520" as="geometry"/>
                </mxCell>
                <mxCell id="30" value="Register" style="swimlane;whiteSpace=wrap;html=1;" vertex="1" parent="29">
                    <mxGeometry x="85" y="85" width="200" height="385" as="geometry"/>
                </mxCell>
                <mxCell id="31" value="Usernmae" style="rounded=1;whiteSpace=wrap;html=1;align=left;" vertex="1" parent="30">
                    <mxGeometry x="20" y="215" width="160" height="30" as="geometry"/>
                </mxCell>
                <mxCell id="32" value="Password" style="rounded=1;whiteSpace=wrap;html=1;align=left;" vertex="1" parent="30">
                    <mxGeometry x="20" y="255" width="160" height="30" as="geometry"/>
                </mxCell>
                <mxCell id="33" value="Register" style="rounded=1;whiteSpace=wrap;html=1;align=center;" vertex="1" parent="30">
                    <mxGeometry x="20" y="295" width="160" height="30" as="geometry"/>
                </mxCell>
                <mxCell id="36" value="Nama" style="rounded=1;whiteSpace=wrap;html=1;align=left;" vertex="1" parent="30">
                    <mxGeometry x="20" y="55" width="160" height="30" as="geometry"/>
                </mxCell>
                <mxCell id="37" value="TTL" style="rounded=1;whiteSpace=wrap;html=1;align=left;" vertex="1" parent="30">
                    <mxGeometry x="20" y="95" width="160" height="30" as="geometry"/>
                </mxCell>
                <mxCell id="38" value="Gender" style="rounded=1;whiteSpace=wrap;html=1;align=left;" vertex="1" parent="30">
                    <mxGeometry x="20" y="135" width="160" height="30" as="geometry"/>
                </mxCell>
                <mxCell id="39" value="Nomor HP" style="rounded=1;whiteSpace=wrap;html=1;align=left;" vertex="1" parent="30">
                    <mxGeometry x="20" y="175" width="160" height="30" as="geometry"/>
                </mxCell>
                <mxCell id="41" value="Login" style="text;html=1;strokeColor=none;fillColor=none;align=center;verticalAlign=middle;whiteSpace=wrap;rounded=0;" vertex="1" parent="30">
                    <mxGeometry x="45" y="335" width="110" height="30" as="geometry"/>
                </mxCell>
                <mxCell id="35" value="Your vanity URL" style="html=1;shadow=0;dashed=0;shape=mxgraph.bootstrap.rrect;rSize=5;strokeColor=none;html=1;whiteSpace=wrap;fillColor=none;fontColor=#212529;align=left;spacingLeft=0;fontSize=14;" vertex="1" parent="29">
                    <mxGeometry x="-70" y="420" width="200" height="30" as="geometry"/>
                </mxCell>
                <mxCell id="43" value="" style="swimlane;startSize=0;" vertex="1" parent="1">
                    <mxGeometry x="960" y="80" width="360" height="320" as="geometry"/>
                </mxCell>
                <mxCell id="44" value="Lupa password" style="swimlane;whiteSpace=wrap;html=1;startSize=23;" vertex="1" parent="43">
                    <mxGeometry x="80" y="52.5" width="200" height="195" as="geometry"/>
                </mxCell>
                <mxCell id="47" value="Submit" style="rounded=1;whiteSpace=wrap;html=1;align=center;" vertex="1" parent="44">
                    <mxGeometry x="20" y="105" width="160" height="30" as="geometry"/>
                </mxCell>
                <mxCell id="48" value="Email" style="rounded=1;whiteSpace=wrap;html=1;align=left;" vertex="1" parent="44">
                    <mxGeometry x="20" y="55" width="160" height="30" as="geometry"/>
                </mxCell>
                <mxCell id="52" value="Kembali" style="text;html=1;strokeColor=none;fillColor=none;align=center;verticalAlign=middle;whiteSpace=wrap;rounded=0;" vertex="1" parent="44">
                    <mxGeometry x="45" y="155" width="110" height="30" as="geometry"/>
                </mxCell>
                <mxCell id="55" value="" style="swimlane;startSize=0;" vertex="1" parent="1">
                    <mxGeometry x="960" y="440" width="360" height="320" as="geometry"/>
                </mxCell>
                <mxCell id="56" value="OTP Lupa password" style="swimlane;whiteSpace=wrap;html=1;startSize=23;" vertex="1" parent="55">
                    <mxGeometry x="80" y="52.5" width="200" height="195" as="geometry"/>
                </mxCell>
                <mxCell id="57" value="Submit" style="rounded=1;whiteSpace=wrap;html=1;align=center;" vertex="1" parent="56">
                    <mxGeometry x="20" y="105" width="160" height="30" as="geometry"/>
                </mxCell>
                <mxCell id="58" value="OTP" style="rounded=1;whiteSpace=wrap;html=1;align=left;" vertex="1" parent="56">
                    <mxGeometry x="20" y="55" width="160" height="30" as="geometry"/>
                </mxCell>
                <mxCell id="59" value="Kembali" style="text;html=1;strokeColor=none;fillColor=none;align=center;verticalAlign=middle;whiteSpace=wrap;rounded=0;" vertex="1" parent="56">
                    <mxGeometry x="45" y="155" width="110" height="30" as="geometry"/>
                </mxCell>
                <mxCell id="60" value="" style="swimlane;startSize=0;" vertex="1" parent="1">
                    <mxGeometry x="960" y="790" width="360" height="350" as="geometry"/>
                </mxCell>
                <mxCell id="61" value="New Password&amp;nbsp;" style="swimlane;whiteSpace=wrap;html=1;startSize=23;" vertex="1" parent="60">
                    <mxGeometry x="80" y="52.5" width="200" height="257.5" as="geometry"/>
                </mxCell>
                <mxCell id="62" value="Submit" style="rounded=1;whiteSpace=wrap;html=1;align=center;" vertex="1" parent="61">
                    <mxGeometry x="20" y="157.5" width="160" height="30" as="geometry"/>
                </mxCell>
                <mxCell id="63" value="Password baru" style="rounded=1;whiteSpace=wrap;html=1;align=left;" vertex="1" parent="61">
                    <mxGeometry x="20" y="55" width="160" height="30" as="geometry"/>
                </mxCell>
                <mxCell id="64" value="Kembali" style="text;html=1;strokeColor=none;fillColor=none;align=center;verticalAlign=middle;whiteSpace=wrap;rounded=0;" vertex="1" parent="61">
                    <mxGeometry x="45" y="207.5" width="110" height="30" as="geometry"/>
                </mxCell>
                <mxCell id="65" value="Password konfirmasi" style="rounded=1;whiteSpace=wrap;html=1;align=left;" vertex="1" parent="61">
                    <mxGeometry x="20" y="107.5" width="160" height="30" as="geometry"/>
                </mxCell>
            </root>
        </mxGraphModel>
    </diagram>
</mxfile>